<svg xmlns="http://www.w3.org/2000/svg" viewBox="0 0 32 32">
  <!-- Wine background -->
  <rect width="32" height="32" rx="4" fill="#7f1d1d"/>
  <!-- Left brace -->
  <path d="M 12.5 7
           C 9.8 7 9.0 8.2 9.0 10.5
           L 9.0 14
           C 9.0 15.4 8.4 16 7.0 16
           C 8.4 16 9.0 16.6 9.0 18
           L 9.0 21.5
           C 9.0 23.8 9.8 25 12.5 25"
        fill="none" stroke="#fdfbf6" stroke-width="1.6"
        stroke-linecap="round" stroke-linejoin="round"/>
  <!-- Em-dash -->
  <line x1="13" y1="16" x2="19" y2="16"
        stroke="#fdfbf6" stroke-width="1.4"
        stroke-linecap="round"/>
  <!-- Right brace -->
  <path d="M 19.5 7
           C 22.2 7 23.0 8.2 23.0 10.5
           L 23.0 14
           C 23.0 15.4 23.6 16 25.0 16
           C 23.6 16 23.0 16.6 23.0 18
           L 23.0 21.5
           C 23.0 23.8 22.2 25 19.5 25"
        fill="none" stroke="#fdfbf6" stroke-width="1.6"
        stroke-linecap="round" stroke-linejoin="round"/>
</svg>
